
<svg width="17" height="16" viewBox="0 0 17 16" fill="none" xmlns="http://www.w3.org/2000/svg">
<g id="Nav - Global &#226;&#134;&#146; List &#226;&#134;&#146; Item &#226;&#134;&#146; Button &#226;&#134;&#146; SVG" opacity="0.5">
<path id="Vector" d="M13.75 5.22C13.8197 5.28956 13.8749 5.37218 13.9126 5.46312C13.9503 5.55406 13.9697 5.65155 13.9697 5.75C13.9697 5.84845 13.9503 5.94593 13.9126 6.03687C13.8749 6.12782 13.8197 6.21043 13.75 6.28L9.49999 10.53C9.43043 10.5997 9.34781 10.6549 9.25687 10.6926C9.16593 10.7303 9.06844 10.7498 8.96999 10.7498C8.87154 10.7498 8.77406 10.7303 8.68312 10.6926C8.59217 10.6549 8.50956 10.5997 8.43999 10.53L4.18999 6.28C4.04943 6.13943 3.97046 5.94879 3.97046 5.75C3.97046 5.65157 3.98985 5.5541 4.02751 5.46316C4.06518 5.37223 4.12039 5.2896 4.18999 5.22C4.25959 5.1504 4.34222 5.09519 4.43316 5.05752C4.5241 5.01985 4.62156 5.00047 4.71999 5.00047C4.91878 5.00047 5.10943 5.07943 5.24999 5.22L8.96999 8.939L12.69 5.22C12.7596 5.15033 12.8422 5.09507 12.9331 5.05736C13.0241 5.01965 13.1215 5.00024 13.22 5.00024C13.3184 5.00024 13.4159 5.01965 13.5069 5.05736C13.5978 5.09507 13.6804 5.15033 13.75 5.22Z" fill="white"/>
</g>
</svg>
