<svg width="17" height="16" viewBox="0 0 17 16" fill="none" xmlns="http://www.w3.org/2000/svg">
<g id="SVG">
<path id="Vector" d="M8.90803 0.391953L14.158 3.43695C14.698 3.75095 15.03 4.32695 15.03 4.95095V11.049C15.0301 11.3556 14.9495 11.6568 14.7965 11.9226C14.6434 12.1883 14.4233 12.4091 14.158 12.563L8.90803 15.608C8.64128 15.7627 8.33839 15.8441 8.03003 15.8441C7.72166 15.8441 7.41878 15.7627 7.15203 15.608L1.90203 12.563C1.63678 12.4091 1.41661 12.1883 1.26357 11.9226C1.11053 11.6568 1.03 11.3556 1.03003 11.049V4.95095C1.03003 4.32695 1.36203 3.74995 1.90203 3.43695L7.15203 0.391953C7.41878 0.237242 7.72166 0.155762 8.03003 0.155762C8.33839 0.155762 8.64128 0.237242 8.90803 0.391953ZM7.90503 1.68995L3.27503 4.37495L8.03003 7.13295L12.785 4.37495L8.15503 1.68995C8.11709 1.66781 8.07395 1.65615 8.03003 1.65615C7.9861 1.65615 7.94297 1.66781 7.90503 1.68995ZM2.53003 5.67695V11.049C2.53003 11.139 2.57703 11.22 2.65503 11.265L7.28003 13.948V8.43195L2.53003 5.67695ZM8.78003 13.948L13.405 11.265C13.443 11.2431 13.4745 11.2116 13.4964 11.1737C13.5183 11.1358 13.5299 11.0928 13.53 11.049V5.67695L8.78003 8.43195V13.948Z" fill="#656D76"/>
</g>
</svg>
