<svg width="17" height="16" viewBox="0 0 17 16" fill="none" xmlns="http://www.w3.org/2000/svg">
<g id="SVG">
<path id="Vector" d="M0.449951 1.75C0.449951 0.784 1.23395 0 2.19995 0H14.7C15.666 0 16.45 0.784 16.45 1.75V14.25C16.45 14.7141 16.2656 15.1592 15.9374 15.4874C15.6092 15.8156 15.1641 16 14.7 16H2.19995C1.73582 16 1.2907 15.8156 0.962514 15.4874C0.634326 15.1592 0.449951 14.7141 0.449951 14.25L0.449951 1.75ZM6.94995 6.5V14.5H14.7C14.7663 14.5 14.8298 14.4737 14.8767 14.4268C14.9236 14.3799 14.95 14.3163 14.95 14.25V6.5H6.94995ZM14.95 5V1.75C14.95 1.6837 14.9236 1.62011 14.8767 1.57322C14.8298 1.52634 14.7663 1.5 14.7 1.5H6.94995V5H14.95ZM1.94995 6.5V14.25C1.94995 14.388 2.06195 14.5 2.19995 14.5H5.44995V6.5H1.94995ZM5.44995 5V1.5H2.19995C2.13365 1.5 2.07006 1.52634 2.02317 1.57322C1.97629 1.62011 1.94995 1.6837 1.94995 1.75V5H5.44995Z" fill="#656D76"/>
</g>
</svg>
