<svg width="17" height="16" viewBox="0 0 17 16" fill="none" xmlns="http://www.w3.org/2000/svg">
<g id="SVG">
<path id="Vector" d="M2.26999 2.5C2.26999 1.83696 2.53338 1.20107 3.00222 0.732233C3.47106 0.263392 4.10695 0 4.76999 0L13.52 0C13.7189 0 13.9097 0.0790176 14.0503 0.21967C14.191 0.360322 14.27 0.551088 14.27 0.75V13.25C14.27 13.4489 14.191 13.6397 14.0503 13.7803C13.9097 13.921 13.7189 14 13.52 14H11.02C10.8211 14 10.6303 13.921 10.4897 13.7803C10.349 13.6397 10.27 13.4489 10.27 13.25C10.27 13.0511 10.349 12.8603 10.4897 12.7197C10.6303 12.579 10.8211 12.5 11.02 12.5H12.77V10.5H4.76999C4.57307 10.5 4.38055 10.5582 4.21655 10.6672C4.05256 10.7762 3.9244 10.9312 3.84815 11.1128C3.7719 11.2943 3.75095 11.4943 3.78792 11.6878C3.82489 11.8812 3.91815 12.0594 4.05599 12.2C4.12493 12.2704 4.17934 12.3537 4.2161 12.4451C4.25286 12.5365 4.27125 12.6343 4.27023 12.7328C4.26921 12.8313 4.24879 12.9287 4.21015 13.0193C4.1715 13.1099 4.11538 13.1921 4.04499 13.261C3.9746 13.3299 3.89132 13.3843 3.79991 13.4211C3.70849 13.4579 3.61074 13.4763 3.51221 13.4752C3.41369 13.4742 3.31633 13.4538 3.2257 13.4152C3.13507 13.3765 3.05293 13.3204 2.98399 13.25C2.5257 12.7829 2.26928 12.1544 2.26999 11.5V2.5ZM12.77 1.5H4.76999C4.50477 1.5 4.25042 1.60536 4.06288 1.79289C3.87535 1.98043 3.76999 2.23478 3.76999 2.5V9.208C4.08533 9.0702 4.42585 8.99937 4.76999 9H12.77V1.5ZM5.26999 12.25C5.26999 12.1837 5.29633 12.1201 5.34321 12.0732C5.3901 12.0263 5.45369 12 5.51999 12H9.01999C9.08629 12 9.14988 12.0263 9.19677 12.0732C9.24365 12.1201 9.26999 12.1837 9.26999 12.25V15.5C9.26999 15.5464 9.25706 15.5919 9.23265 15.6314C9.20824 15.6709 9.17332 15.7028 9.13179 15.7236C9.09027 15.7444 9.04378 15.7532 8.99754 15.749C8.9513 15.7448 8.90713 15.7279 8.86999 15.7L7.41999 14.613C7.37678 14.5804 7.32412 14.5627 7.26999 14.5627C7.21586 14.5627 7.1632 14.5804 7.11999 14.613L5.66999 15.7C5.63285 15.7279 5.58868 15.7448 5.54244 15.749C5.4962 15.7532 5.44971 15.7444 5.40819 15.7236C5.36666 15.7028 5.33174 15.6709 5.30733 15.6314C5.28292 15.5919 5.26999 15.5464 5.26999 15.5V12.25Z" fill="#7D8590"/>
</g>
</svg>
