<svg width="17" height="16" viewBox="0 0 17 16" fill="none" xmlns="http://www.w3.org/2000/svg">
<g id="SVG">
<path id="Vector" d="M8.51994 0.25C8.65995 0.24991 8.7972 0.289014 8.91614 0.362887C9.03508 0.43676 9.13096 0.542452 9.19294 0.668L11.0749 4.483L15.2849 5.095C15.4234 5.11511 15.5535 5.17355 15.6605 5.26372C15.7675 5.35388 15.8471 5.47218 15.8904 5.60523C15.9336 5.73829 15.9388 5.8808 15.9054 6.01665C15.8719 6.1525 15.8011 6.27628 15.7009 6.374L12.6549 9.344L13.3739 13.536C13.3973 13.6738 13.3816 13.8154 13.3288 13.9449C13.276 14.0743 13.1881 14.1865 13.0751 14.2687C12.962 14.3509 12.8282 14.3999 12.6888 14.4102C12.5494 14.4205 12.4099 14.3917 12.2859 14.327L8.51994 12.347L4.75394 14.327C4.63013 14.392 4.49061 14.4211 4.35113 14.411C4.21165 14.4009 4.07778 14.352 3.96462 14.2699C3.85146 14.1877 3.76353 14.0755 3.71075 13.946C3.65797 13.8165 3.64245 13.6749 3.66594 13.537L4.38594 9.343L1.33794 6.374C1.23751 6.27632 1.16644 6.15247 1.13279 6.01647C1.09914 5.88047 1.10426 5.73777 1.14756 5.60453C1.19087 5.47129 1.27062 5.35284 1.3778 5.26261C1.48497 5.17238 1.61527 5.11397 1.75394 5.094L5.96394 4.483L7.84694 0.668C7.90892 0.542452 8.0048 0.43676 8.12374 0.362887C8.24268 0.289014 8.37993 0.24991 8.51994 0.25ZM8.51994 2.695L7.13494 5.5C7.08115 5.6089 7.00173 5.70311 6.90348 5.77453C6.80524 5.84595 6.69112 5.89244 6.57094 5.91L3.47394 6.36L5.71394 8.544C5.80109 8.62886 5.86629 8.73365 5.90392 8.84933C5.94156 8.96501 5.95048 9.0881 5.92994 9.208L5.40194 12.292L8.17094 10.836C8.27857 10.7794 8.39834 10.7499 8.51994 10.7499C8.64154 10.7499 8.76131 10.7794 8.86894 10.836L11.6389 12.292L11.1089 9.208C11.0884 9.0881 11.0973 8.96501 11.135 8.84933C11.1726 8.73365 11.2378 8.62886 11.3249 8.544L13.5649 6.361L10.4689 5.911C10.3488 5.89344 10.2346 5.84695 10.1364 5.77553C10.0382 5.70411 9.95872 5.6099 9.90494 5.501L8.51994 2.695Z" fill="#656D76"/>
</g>
</svg>
